:SAMPLES-PER-SECOND 24
:FULLY-SPECIFIED
:DEGREES
297
root  12.7794 40.1064 12.3823 7.7085 -34.158 -4.70667
RightUpLeg  -12.6279 -0.116412 -10.4828
RightLeg  28.1385 1.13878 0.43529
RightFoot  -0.406811 -1.41334 14.7426
RightToes  -2.08645e-008 3.77894e-005 6.81332e-007
Spine  1.49451 -0.598043 -2.10125
Spine1  2.16041 -1.44602 4.96933
HEad  -25.3436 22.7321 -4.071
LeftShoulder1  5.90225 -11.8335 -32.4853
LeftArm  4.67294 9.67359 -33.1183
LeftForeArm  169.997 -67.8069 -156.119
LeftHand  -0.439243 -1.39854 7.67358
RightShoulder  3.70292 6.64146 30.5953
RightArm  17.2479 -26.7109 23.1093
RightForeArm  149.196 73.5735 144.019
RightHand  -0.195305 8.12012 -2.05244
LeftUpLeg  -10.1133 -9.48336 13.6869
LeftLeg  22.8829 9.40518 4.64555
LeftFoot  -2.18821 1.33004 -16.8129
LeftToes  1.24767e-006 1.47042e-008 1.32732e-009
298
root  12.3933 38.5756 12.3294 7.36328 -37.4084 -4.31409
RightUpLeg  -13.919 2.01192 -10.8081
RightLeg  32.7325 1.47268 0.775124
RightFoot  -11.4573 -0.0650541 12.87
RightToes  -2.08645e-008 3.77894e-005 6.81332e-007
Spine  1.16962 -0.27352 -2.69072
Spine1  4.25986 -1.22504 4.64285
HEad  -27.6233 23.9998 -4.93673
LeftShoulder1  5.9639 -11.8179 -32.9267
LeftArm  3.24447 2.05611 -30.4185
LeftForeArm  169.646 -68.4278 -155.354
LeftHand  -0.486362 -1.51837 8.34156
RightShoulder  3.71729 6.62455 30.8014
RightArm  13.7902 -23.0525 24.784
RightForeArm  144.328 75.395 138.459
RightHand  -0.326136 8.19513 -3.15816
LeftUpLeg  -9.84025 -6.68452 13.8441
LeftLeg  27.9864 7.7494 4.78568
LeftFoot  -13.3988 -0.273626 -19.5081
LeftToes  1.24767e-006 1.47042e-008 1.32732e-009
299
root  11.8243 37.7407 12.3211 6.00708 -40.9877 -2.80908
RightUpLeg  -13.961 6.65694 -11.1372
RightLeg  34.4784 -0.799407 -0.834957
RightFoot  -18.635 0.574108 10.8504
RightToes  -2.08645e-008 3.77894e-005 6.81332e-007
Spine  -0.363379 0.151687 -5.62075
Spine1  7.88817 -1.24797 5.77518
HEad  -30.8086 25.058 -6.56768
LeftShoulder1  6.31826 -12.0742 -34.5455
LeftArm  0.182107 -0.565341 -27.2385
LeftForeArm  172.479 -69.5667 -154.289
LeftHand  -0.542624 -1.65252 9.12109
RightShoulder  3.86682 6.63818 32.2377
RightArm  9.47872 -20.7703 27.5635
RightForeArm  140.289 77.5 130.225
RightHand  -0.554299 8.13005 -5.12291
LeftUpLeg  -7.22675 -3.18459 12.6255
LeftLeg  28.3302 8.6403 5.35641
LeftFoot  -18.81 -1.10747 -18.4357
LeftToes  1.24767e-006 1.47042e-008 1.32732e-009
300
root  11.1967 38.0614 12.482 5.19336 -42.7996 -1.50824
RightUpLeg  -12.9253 11.3013 -10.8878
RightLeg  33.0877 -4.41537 -3.3124
RightFoot  -17.6918 0.480217 10.7885
RightToes  -2.08645e-008 3.77894e-005 6.81332e-007
Spine  -2.07603 -0.557748 -8.52099
Spine1  10.2343 -2.51061 8.03271
HEad  -33.1211 26.6159 -8.37956
LeftShoulder1  6.64805 -12.3641 -35.8611
LeftArm  -1.78335 7.46692 -27.3608
LeftForeArm  172.963 -69.9801 -153.802
LeftHand  -0.547575 -1.50036 9.39474
RightShoulder  4.13523 6.77983 34.3191
RightArm  6.7278 -23.3552 30.4137
RightForeArm  139.925 78.0313 127.762
RightHand  -0.536679 8.65406 -4.8037
LeftUpLeg  -6.09247 -2.91647 11.6817
LeftLeg  27.9869 10.236 6.19825
LeftFoot  -15.5808 -0.655329 -21.0029
LeftToes  1.24767e-006 1.47042e-008 1.32732e-009
301
root  10.7091 39.2191 12.8338 6.4729 -42.676 -2.14453
RightUpLeg  -11.4602 11.3383 -9.95271
RightLeg  28.8704 -4.75354 -3.05691
RightFoot  -10.8755 -0.12652 11.9852
RightToes  -2.08645e-008 3.77894e-005 6.81332e-007
Spine  -2.74004 -2.1355 -7.73323
Spine1  9.6428 -4.19077 8.75902
HEad  -32.2725 28.9462 -9.31018
LeftShoulder1  6.71293 -12.3832 -36.2094
LeftArm  -2.41875 20.644 -30.9476
LeftForeArm  169.06 -69.987 -153.283
LeftHand  -0.516796 -1.31523 9.10108
RightShoulder  4.19856 6.81512 34.7918
RightArm  6.25003 -30.1243 32.9794
RightForeArm  141.107 77.3444 131.053
RightHand  -0.49588 8.24552 -4.59096
LeftUpLeg  -8.72555 -2.09271 12.6296
LeftLeg  30.5032 9.70602 6.46389
LeftFoot  -4.41959 1.31976 -21.1033
LeftToes  1.24767e-006 1.47042e-008 1.32732e-009
